# xmcd
#
# Track frame offsets: 
#        150
#        11445
#        13755
#        23939
#        36684
#        44402
#        53583
#        67919
#        79957
#        89710
#        103235
#        113504
#        126474
#        137383
#        153864
#        155242
#        171804
#        181988
#        192364
#        204500
#
# Disc length: 2900 seconds
#
# Revision: 0
# Processed by: cddbd v1.5.2PL0 Copyright (c) Steve Scherf et al.
# Submitted via: ExactAudioCopy v0.99pb4
#
DISCID=140b5214
DTITLE=The Beach Boys - 20 golden greats
DYEAR=1987
DGENRE=Blues
TTITLE0=Surfin' USA
TTITLE1=Fun Fun Fun
TTITLE2=I Get Around
TTITLE3=Don't Worry Baby
TTITLE4=Little Deuce Coupe
TTITLE5=When I Grow Up (To Be A Man)
TTITLE6=Help Me Rhonda
TTITLE7=California Girls
TTITLE8=Barbara Ann
TTITLE9=Sloop John B
TTITLE10=You're So Good To Me
TTITLE11=God Only Knows
TTITLE12=Wouldn't It Be Nice
TTITLE13=Good Vibrations
TTITLE14=Then I Kissed Her
TTITLE15=Heroes And Villains
TTITLE16=Darlin'
TTITLE17=Do It Again
TTITLE18=I Can Hear Music
TTITLE19=I Break Away
EXTD=
EXTT0=
EXTT1=
EXTT2=
EXTT3=
EXTT4=
EXTT5=
EXTT6=
EXTT7=
EXTT8=
EXTT9=
EXTT10=
EXTT11=
EXTT12=
EXTT13=
EXTT14=
EXTT15=
EXTT16=
EXTT17=
EXTT18=
EXTT19=
PLAYORDER=
